<svg id="Layer_1" data-name="Layer 1" xmlns="http://www.w3.org/2000/svg" viewBox="0 0 342.49 87.18"><defs><style>.cls-1{fill:#1e2027;}.cls-2{fill:#fff;}.cls-3{fill:#3b393c;}.cls-4{fill:none;stroke:#3b393c;stroke-linecap:round;stroke-linejoin:round;stroke-width:0;}.cls-5{fill:#9a7849;}</style></defs><title>logo</title><circle class="cls-1" cx="43.99" cy="44.45" r="39.11"/><path class="cls-2" d="M57.36,71.06c0-4.26-1-8.32-1.7-12.47,0-.09,0-.18,0-.28a17.17,17.17,0,0,0-.49-3.79,3.22,3.22,0,0,0-.71-1.31,31.1,31.1,0,0,1-.69-3.71c-.25-2.35-2.76-2.73-4.26-1.67a2.15,2.15,0,0,0-2-1.37,2.74,2.74,0,0,0-3.37.94,19.18,19.18,0,0,1-.57,3.46.23.23,0,0,1-.22.17,10,10,0,0,1-3.42-.71,4.58,4.58,0,0,1-1.78-.94,2.55,2.55,0,0,0-2,1.35c-.37.24-1.19.44-1.51.6l-.53.29c-.7-1.33-2.57-2.19-3.91-1a11.1,11.1,0,0,0-2.3,4c-.26.63-.52,1.29-.76,2-.43,1-.87,2.07-1.34,3.09s-.83,1.94-1.25,2.91c-.11.25-.38,1.05-.55,1.54l0,0c-.08.47-.17.93-.27,1.39a13.4,13.4,0,0,1-.43,2.1,3,3,0,0,0,1,1.07,8.83,8.83,0,0,1-.51,1.78.23.23,0,0,1,0,0c-.21,1.46-.38,2.92-.56,4.38a2.87,2.87,0,0,0,1,.76,12.28,12.28,0,0,0,1.86-.6,4,4,0,0,0,2.33-1.5.23.23,0,0,1,.4,0c.57.94,1.07,1.91,1.64,2.85s1.09,1.52,1.5,2.34a5.81,5.81,0,0,1,.61,2.48c.79-.6,1.49-1.31,2.3-1.9a.23.23,0,0,1,.31.08A15.28,15.28,0,0,0,37.13,82,6.83,6.83,0,0,1,38,83.5a53.56,53.56,0,0,1,5.47,0c1.72.21,3.43.43,5.16.48h0C52,83.5,55,82.14,58.16,81.3A85.56,85.56,0,0,1,57.36,71.06Z" transform="translate(-1 -0.69)"/><path class="cls-2" d="M45,6.08A39.09,39.09,0,0,0,10.71,26.36c.36,1.08.76,2.2,1.24,3.36,4.72,11.44,3.07,22.81,9.84,26S36,48.75,45,48.39l0-1.32,0,1.32C54,48.75,61.43,59,68.2,55.75s5.12-14.59,9.84-26c.48-1.16.88-2.27,1.24-3.36A39.1,39.1,0,0,0,45,6.08Z" transform="translate(-1 -0.69)"/><path class="cls-1" d="M30.72,27.26a1.19,1.19,0,0,1,.91.2,5.11,5.11,0,0,0,.76.27,4.8,4.8,0,0,0,1.51.18,5,5,0,0,0,1.48-.31,5.52,5.52,0,0,0,.71-.31l.78-.4a17.52,17.52,0,0,1,3.42-1.27,17,17,0,0,1,3.62-.55L44,27a19.75,19.75,0,0,0-6.46,1.37l-.8.33a7,7,0,0,1-.92.31,5.74,5.74,0,0,1-2,.2A4.64,4.64,0,0,1,32,28.67a5.48,5.48,0,0,1-.78-.55,3.55,3.55,0,0,1-.34-.33A.85.85,0,0,1,30.72,27.26Z" transform="translate(-1 -0.69)"/><path class="cls-1" d="M60.61,26.65A9,9,0,0,1,58,28.15a9.45,9.45,0,0,1-3,.6,7.38,7.38,0,0,1-1.63-.16,14,14,0,0,1-1.48-.43c-.93-.33-1.77-.66-2.57-.86l.35-1.92a12.94,12.94,0,0,1,2.91.91,8.89,8.89,0,0,0,2.48.72A12.09,12.09,0,0,0,57.73,27C58.66,26.86,59.61,26.72,60.61,26.65Z" transform="translate(-1 -0.69)"/><path class="cls-1" d="M57.4,25.89c-1.45-1-2.77-2.27-4.22-3.1A5.85,5.85,0,0,0,51,22a4.73,4.73,0,0,0-2.15.26L48.31,20a6.76,6.76,0,0,1,3.08.25,7.38,7.38,0,0,1,2.52,1.5c1.41,1.24,2.42,2.68,3.63,4Z" transform="translate(-1 -0.69)"/><path class="cls-1" d="M27.11,55.89c-.22-.28-.43-.57-.63-.87s-.37-.62-.54-.93a7.3,7.3,0,0,1-.8-2,5.17,5.17,0,0,1,.08-2.26A2.94,2.94,0,0,1,26.55,48a4,4,0,0,0-.67,1.9,7.11,7.11,0,0,0,.15,2c.13.65.25,1.33.44,2,.1.33.22.66.33,1s.25.66.36,1Z" transform="translate(-1 -0.69)"/><path class="cls-1" d="M31.52,26.79s-1.32.34-1.37-.71a2.49,2.49,0,0,1-1.11,1,5.16,5.16,0,0,1,2.75,1.29Z" transform="translate(-1 -0.69)"/><path class="cls-1" d="M27.81,47.13a2,2,0,0,1,1.14.06,4,4,0,0,1,1,.5,6.88,6.88,0,0,1,.91.71c.28.26.55.54.8.82l-1,.66c-.16-.3-.33-.61-.52-.89a6.13,6.13,0,0,0-.63-.81,3.56,3.56,0,0,0-.79-.65,1.84,1.84,0,0,0-1-.3Z" transform="translate(-1 -0.69)"/><path class="cls-1" d="M25.14,51.13a23.21,23.21,0,0,1-.19-2.63,11.19,11.19,0,0,1,.23-2.65l.05-.22h.26a8.14,8.14,0,0,1,1.8.5,4.68,4.68,0,0,1,1.57,1l-.21.21a4.33,4.33,0,0,0-1.51-.82,7.67,7.67,0,0,0-1.7-.34l.31-.22a10.65,10.65,0,0,0-.17,2.51A22.62,22.62,0,0,0,25.79,51Z" transform="translate(-1 -0.69)"/><path class="cls-1" d="M13.65,32.07c-.43-.85-.8-1.73-1.15-2.61s-.65-1.78-.94-2.69l-.39-1.31c-.35.71-.72,1.31-1.08,2,.44.8,1,1.7,1.44,2.47s1.07,1.64,1.66,2.41a17,17,0,0,0,1.93,2.18A16.75,16.75,0,0,1,13.65,32.07Z" transform="translate(-1 -0.69)"/><path class="cls-1" d="M76.33,32.07c.43-.85.8-1.73,1.15-2.61s.65-1.78.94-2.69l.39-1.31c.35.71.72,1.31,1.08,2-.44.8-1,1.7-1.44,2.47s-1.07,1.64-1.66,2.41a17,17,0,0,1-1.93,2.18A16.75,16.75,0,0,0,76.33,32.07Z" transform="translate(-1 -0.69)"/><path class="cls-1" d="M30.31,26.77a4.53,4.53,0,0,0,1.9-.3,9.3,9.3,0,0,0,1.67-1c1.06-.81,2-1.77,3.09-2.7a12.39,12.39,0,0,1,3.7-2.46,6.21,6.21,0,0,1,2.43-.39,6.77,6.77,0,0,1,2.39.56l-1,2.06a4.21,4.21,0,0,0-3.24-.43,10.8,10.8,0,0,0-3.34,1.84c-1.09.8-2.18,1.7-3.4,2.46a10.33,10.33,0,0,1-2,1l-.26.09-.31.08a3.44,3.44,0,0,1-.59.06c-.38,0-.73,0-1,0Z" transform="translate(-1 -0.69)"/><path class="cls-1" d="M43.55,31.22a14.37,14.37,0,0,1-9.26.51s2.4,3.58,9.14,4.23Z" transform="translate(-1 -0.69)"/><path class="cls-1" d="M50.2,31.23c.21,1.15.37,2.31.52,3.48a24.24,24.24,0,0,0,5.77-4.45A17.46,17.46,0,0,1,50.2,31.23Z" transform="translate(-1 -0.69)"/><path class="cls-3" d="M49.81,68.05a3.36,3.36,0,0,0-.46-1,.64.64,0,0,0-.76-.27,4.73,4.73,0,0,1,.74,1.93,7.38,7.38,0,0,1-.08,3.48h0l.05-.1c.08-.17.17-.33.24-.5A5.44,5.44,0,0,0,49.81,68.05Z" transform="translate(-1 -0.69)"/><path class="cls-3" d="M53.4,63.07l-.11-.14-.05,0a5.76,5.76,0,0,1-.37,4.34l.12-.12C53.79,66.36,54,63.88,53.4,63.07Z" transform="translate(-1 -0.69)"/><path class="cls-1" d="M56.9,71.57c0,1.47,0,3,.06,4.5s.14,3.09.24,4.6l.07,1.08c0,.14,0,.28,0,.41q.65-.27,1.33-.49c0-.31,0-.62,0-.93-.05-3.39-.1-6.89-.45-10.32-.19-1.89-.27-3.82-.34-5.68,0-.45,0-.91-.05-1.37,0-.25,0-.51,0-.76a17,17,0,0,0-.63-4.82l0-.08c-.19-.2-.39-.38-.59-.57l-.07-.07L56.23,57l-.32-.2s.05,0,0-.06a1.65,1.65,0,0,0-.1-.28.07.07,0,1,0-.12.07,1.43,1.43,0,0,1,.11.23l-.48-.3a5.77,5.77,0,0,1,.78,2.43,4.55,4.55,0,0,1-1.47,4h.13a.8.8,0,0,0,.27-.08,2.51,2.51,0,0,0,1.13-2,9.42,9.42,0,0,1,.45,2.29c.1,1.55.17,3.2.2,4.88C56.88,69.18,56.89,70.37,56.9,71.57Z" transform="translate(-1 -0.69)"/><path class="cls-1" d="M52,55.19a33.06,33.06,0,0,0-7.74-4.11l0-.44c0-.44.09-.85.1-1.27,0-1.49.07-3.08.05-4.65,0-1.11-.06-2.24-.1-3.33,0-.47,0-.94-.05-1.41s0-1-.06-1.43c0-1-.09-2.06-.09-3.09v-.4a72.57,72.57,0,0,1,.44-9.15c0-.26.06-.52.09-.78,0-.42.09-.86.17-1.28a11.26,11.26,0,0,1,.39-1.63,4.47,4.47,0,0,1,1.13-1.58v0h0a8.44,8.44,0,0,0,.4,3.52.05.05,0,0,0,.1,0c0-1.77-.17-3.55.59-5.09a3.62,3.62,0,0,1,.55-.65.21.21,0,0,1,.16-.06.15.15,0,0,0,0,.07c0,.52.08,1,.11,1.57v.06a.19.19,0,0,0,0,.05c.06,1.1.11,2.21.23,3.31l0,.5,0,.31a33.75,33.75,0,0,0,.5-3.52,31.57,31.57,0,0,1,0-4.34l-.09,0a.3.3,0,0,0-.16.06l-.06,0A4.24,4.24,0,0,0,46.6,18.9l-.06,0-.08.06a10,10,0,0,0-2.18,2.82,10.7,10.7,0,0,0-.78,3.74l0,.32-.11.05L43,29.6H43v.2c0,.42,0,.91-.06,1.41,0,.28-.05.57-.09.85v.24h.1c0,.21,0,.42,0,.63,0,.69-.07,1.4-.07,2.1,0,1.74,0,3.58.09,5.79,0,1,.07,2,.11,3l0,.36c0,1.36-.05,2.71-.17,4.07-.06.68-.21,1.55-.21,2.35-.88-.12-1.76-.56-2.61-.75-1.24-.29-2.37-.77-3.58-1.16h-.07c-1.31-.33-2.94-.85-4.15-.33a2.76,2.76,0,0,0-.28.15,6.12,6.12,0,0,0-.7.52h0a3.92,3.92,0,0,0-.46.54l-.06.07a4.36,4.36,0,0,1-.42.55l-.23.19c-.39.46-.76,1-1.12,1.46s-.71,1.19-1,1.73c-.56,1-1,2-1.6,2.89l0,.08a11.62,11.62,0,0,0-1.83,4,16.52,16.52,0,0,0-.47,2.3,24,24,0,0,1-1.57,6.05.68.68,0,0,0,0,.2l0,.11,0,.23,1,.08,0,.21a10.13,10.13,0,0,0-.17,1c0,.45-.08.9-.11,1.35S23,73,23,73.44s-.11.7-.18,1l-.08.42c0,.08,0,.16-.06.24a2.61,2.61,0,0,0-.09.5.55.55,0,0,0,.23.53.66.66,0,0,0,.63,0,6,6,0,0,1,1.23-.32,7.07,7.07,0,0,0,2.65-1,3.83,3.83,0,0,0,1.24-1.25,17.29,17.29,0,0,0,1.66,3.81l.09.15a16.62,16.62,0,0,1,1.85,4,1.11,1.11,0,0,0,.08.2l.17.37.24-.19.5-.38A6.66,6.66,0,0,0,34.75,80a17,17,0,0,0,2.34,3.3,6.76,6.76,0,0,1,2,.5c0-.77,0-1.53,0-2.29,0-1,0-1.94,0-2.91,0-.8,0-1.61,0-2.41V76l.36.15v0a2.35,2.35,0,0,1,.43.17s0,0,0,0a2.66,2.66,0,0,0,.81.21.21.21,0,0,0,.1,0,3.24,3.24,0,0,0,.64.12l.24,0c-.28-.14-.55-.3-.82-.46h0a1.5,1.5,0,0,0-.41-.24l-.57-.36a5.47,5.47,0,0,1-1.53-1.81.2.2,0,0,1,0-.14,3.29,3.29,0,0,0,1.25-.39.87.87,0,0,0,.59-.32l.14-.18a1.71,1.71,0,0,1-2.2-1,.28.28,0,0,1,0-.2.31.31,0,0,1,.11-.12l.17-.06.15-.06a2.61,2.61,0,0,0,1-.58l.28-.29a7.14,7.14,0,0,1-2.54.62,12.94,12.94,0,0,1-3.42.07,17.31,17.31,0,0,1-3.33-.76,6.71,6.71,0,0,1-1.43-.61c-.21-.13-.41-.36-.64-.5h0l.46.45a2.42,2.42,0,0,0,.57.51.23.23,0,0,1,.09.08.24.24,0,0,1,.14.4,4.92,4.92,0,0,1-3.58,1.59h0a2.34,2.34,0,0,0,1.68.11l.11,0a2.46,2.46,0,0,1-.93,1.46,5,5,0,0,1-1.7.83l-1.56.44-.39.11a.77.77,0,0,1,0-.11A11,11,0,0,0,24,72.3c.06-.72.15-1.45.23-2.16l0-.27A2.21,2.21,0,0,1,25,68.44c.7-.62,1.41-1.24,2.12-1.85l.23-.2c.38-.33.77-.67,1.18-1a3.13,3.13,0,0,1,1.93-.64l3.41,0,3.05,0h.57a38.67,38.67,0,0,0,4.84-.17l.82-.11a14.76,14.76,0,0,0,2.39-1.12,6.73,6.73,0,0,0,.57-.4.28.28,0,0,0-.16,0,12.8,12.8,0,0,1-4.65.64c-2.05,0-4.14,0-6.15-.06l-3.5,0a8.85,8.85,0,0,0-1.55.1,3.73,3.73,0,0,0-1.79.84l-.12.1a4.68,4.68,0,0,1-.41.32l.08-.55c.12-.84.23-1.66.37-2.48a2.52,2.52,0,0,1,.24-.64l.06-.14a1.63,1.63,0,0,1,1.15-.93,5.87,5.87,0,0,1,.87-.12l.37,0,1.25-.14c1-.11,1.94-.22,2.91-.3l3.46-.24,2.63-.18a45.55,45.55,0,0,0,6.36-1.49,38.41,38.41,0,0,1-5,.49l-1.51.08a1.3,1.3,0,0,1-.49-.11c-.79-.3-1.51-.58-2.21-.87-.46-.19-.93-.36-1.39-.53A11.47,11.47,0,0,1,34,55.4l-.68-.49.33.74a3.47,3.47,0,0,0,1.79,1.55,1.55,1.55,0,0,1-.22.2c-.71.48-1.35.9-2,1.28a1.07,1.07,0,0,1-.38.11l-1.2.17-1.46.21A3.68,3.68,0,0,0,27,61.85a7.09,7.09,0,0,0-.14,3.4.54.54,0,0,1-.23.57c-1.08,1-2.13,2-2.93,2.73a.5.5,0,0,1-.31.16l.1-.23.18-.39c.13-.28.27-.57.38-.86a18.53,18.53,0,0,0,1-4.52,10.05,10.05,0,0,1,1.33-4.07c.29-.48.5-.86.68-1.23l0,.08c.16-.33.31-.67.45-1a49.67,49.67,0,0,1,3.78-5.85,7.21,7.21,0,0,1,1-1.08,1,1,0,0,1,.82-.3l.48.06a10.91,10.91,0,0,1,1.53.26c1.53.41,3.31.89,5,1.46,2.39.79,4.74,1.76,7,2.7,1,.41,2,.81,3,1.21l1.07.44,2.05.84ZM35.45,78.68a5.12,5.12,0,0,0,.42-2v-.42a17.78,17.78,0,0,0-.15-3.46c0-.25-.09-.49-.14-.75l0-.12.62,0h.31A6.31,6.31,0,0,0,38,74.43a.89.89,0,0,1,.19.45,11.5,11.5,0,0,1,.08,1.48c0,1.12,0,2.44-.12,3.79,0,.61-.1,1.24-.16,1.84l0,.31a22.66,22.66,0,0,1-2.41-3.12A.46.46,0,0,1,35.45,78.68Zm-4.86-7.83.17.07a10.54,10.54,0,0,0,3.63,1,29,29,0,0,1,.3,5.38,4.49,4.49,0,0,1-1.22,2.86c-.16.18-.33.34-.52.53h0l-.06-.24a3.32,3.32,0,0,0-.2-.61,16.91,16.91,0,0,0-1.67-3,5.53,5.53,0,0,1-.94-1.8c-.19-.66-.4-1.32-.6-2l-.31-1a.74.74,0,0,1,0-.13Z" transform="translate(-1 -0.69)"/><path class="cls-4" d="M48.38,17.61h0" transform="translate(-1 -0.69)"/><path class="cls-1" d="M57.3,59.68a9.78,9.78,0,0,0-.88-3.7c-.69-2.29-1.36-4.59-2-6.9q-.6-2.22-1.14-4.46c-.37-1.49-.66-3-.91-4.49L50.76,31l-.84-4.55-.44-2.28-.24-1.14-.14-.58-.08-.3L49,22a2.06,2.06,0,0,0-.1-.23l-.23.15c0,.41,0,.82,0,1.24s0,.87,0,1.31L49,26.66c.28,1.51.54,3,.8,4.55.52,3,1,6.08,1.47,9.13.23,1.51.48,3.08.81,4.59s.67,3,1,4.53.7,3,1.07,4.51l.13.54.07.08a20.6,20.6,0,0,0,.71,1.94A28.82,28.82,0,0,1,56.36,61a.19.19,0,0,0,.38,0c0-.43-.11-.84-.18-1.25l.08,0v.08a.1.1,0,0,0,.12.09c0,.18,0,.36,0,.54a.24.24,0,0,0,.06.15c0,.18,0,.36,0,.53s.39.23.41,0,0-.41,0-.62a.27.27,0,0,0,0-.13C57.34,60.11,57.32,59.89,57.3,59.68Z" transform="translate(-1 -0.69)"/><path class="cls-1" d="M39.71,15.21a2.18,2.18,0,0,1-1.25.56A1.71,1.71,0,0,1,37,15.19a2.48,2.48,0,0,1-.55-1.45,4.77,4.77,0,0,1,.1-1.43,6.42,6.42,0,0,1,1.16-2.48A7,7,0,0,1,39.7,8c-.42.79-.85,1.51-1.22,2.26a10.8,10.8,0,0,0-.83,2.26,4.7,4.7,0,0,0-.14,1.14,2,2,0,0,0,.19,1,1.23,1.23,0,0,0,.79.58A2.82,2.82,0,0,0,39.71,15.21Z" transform="translate(-1 -0.69)"/><path class="cls-1" d="M39.86,13.73a3.62,3.62,0,0,1,1.22-3.54c1.8-1.85,3.15-.8,2.29,1S40.56,12.84,39.86,13.73Z" transform="translate(-1 -0.69)"/><path class="cls-1" d="M50.69,15.21a2.82,2.82,0,0,0,1.23,0,1.23,1.23,0,0,0,.79-.58,2,2,0,0,0,.19-1,4.7,4.7,0,0,0-.14-1.14,10.8,10.8,0,0,0-.83-2.26c-.36-.74-.79-1.47-1.22-2.26a7,7,0,0,1,2,1.81,6.42,6.42,0,0,1,1.16,2.48,4.77,4.77,0,0,1,.1,1.43,2.48,2.48,0,0,1-.55,1.45,1.71,1.71,0,0,1-1.42.58A2.18,2.18,0,0,1,50.69,15.21Z" transform="translate(-1 -0.69)"/><path class="cls-1" d="M50.54,13.73a3.62,3.62,0,0,0-1.22-3.54c-1.8-1.85-3.15-.8-2.29,1S49.84,12.84,50.54,13.73Z" transform="translate(-1 -0.69)"/><path class="cls-1" d="M29.8,74.1s.75-1,1.44-.69,3.8,1.73,4.08,1.78,0,4,0,4,.71-3.73,2-2.52a6.19,6.19,0,0,1,1.61,2.88l-.46-4.31-1.27-2.36-.4-1.15-2.19-.4-4-1-1.37,1.26-.48.56.54,2.66Z" transform="translate(-1 -0.69)"/><path class="cls-2" d="M63.39,76.46c.46-12,4.83-17.66,4.83-17.66s-7.07,6.54-8.74,6.69V78Z" transform="translate(-1 -0.69)"/><path class="cls-1" d="M41.49,34.71c.57,10.44-2.69,14.9-2.88,15.39s4.71.77,4.71.77V39.53l-.06-5.46Z" transform="translate(-1 -0.69)"/><path class="cls-1" d="M38.62,9s-2.91,4.1-.94,6.5A2.64,2.64,0,0,1,35,13.18C34.78,10.87,38.62,9,38.62,9Z" transform="translate(-1 -0.69)"/><path class="cls-1" d="M41.59,33.41s.85-8.76,2.15-9.93l-.46,9.93-1.79.27" transform="translate(-1 -0.69)"/><path class="cls-1" d="M57.44,82.15,56.94,75c-.47,3.4-1.26,5.58-5.46,5.4-8.31-.34-12-7.42-12-7.42l-2.75.22L36.2,83.25A39.36,39.36,0,0,0,57.44,82.15Z" transform="translate(-1 -0.69)"/><path class="cls-5" d="M44.59,87.87A43.59,43.59,0,1,1,88.18,44.28,43.64,43.64,0,0,1,44.59,87.87Zm0-81.46A37.88,37.88,0,1,0,82.46,44.28,37.92,37.92,0,0,0,44.59,6.41Z" transform="translate(-1 -0.69)"/><path class="cls-1" d="M25.25,47.76l-1.72-.86c0,.07-2.24,6.8.17,10.85l3.44-1.63-1.35-2.93-.35-2.32,0-1.21Z" transform="translate(-1 -0.69)"/><path class="cls-1" d="M142,58.32V60.5h-22.4V26.88h22v2.18H122V42.27h17.09v2.08H122v14Z" transform="translate(-1 -0.69)"/><path class="cls-1" d="M149,25.93h2.42V55.62a3,3,0,0,0,.78,2.18,2.86,2.86,0,0,0,2.15.81,8.07,8.07,0,0,0,1.25-.12,6.68,6.68,0,0,0,1.35-.35l.47,1.89a9.89,9.89,0,0,1-2,.54,11.79,11.79,0,0,1-2,.21,4.32,4.32,0,0,1-3.2-1.21A4.38,4.38,0,0,1,149,56.33Z" transform="translate(-1 -0.69)"/><path class="cls-1" d="M181.56,35.69a8.23,8.23,0,0,0-1.21-.9,14.67,14.67,0,0,0-2.13-1.11,18.49,18.49,0,0,0-2.72-.92,11.93,11.93,0,0,0-3-.38,6.68,6.68,0,0,0-4,1,3.29,3.29,0,0,0-1.33,2.79,2.87,2.87,0,0,0,.5,1.73,4.29,4.29,0,0,0,1.44,1.21,12.11,12.11,0,0,0,2.39.95q1.44.43,3.34.9,2.46.66,4.47,1.42a12.15,12.15,0,0,1,3.41,1.89A7.85,7.85,0,0,1,184.87,47a9,9,0,0,1,.76,3.91,9.73,9.73,0,0,1-1,4.62,8.64,8.64,0,0,1-2.72,3.1,11.65,11.65,0,0,1-4,1.73,20.24,20.24,0,0,1-4.73.54,25.29,25.29,0,0,1-7.48-1.14,23.09,23.09,0,0,1-6.63-3.22L162,50.89A9,9,0,0,0,163.49,52a23.26,23.26,0,0,0,2.63,1.37,20.38,20.38,0,0,0,3.36,1.16,15.19,15.19,0,0,0,3.79.47q5.4,0,5.4-3.46a2.91,2.91,0,0,0-.62-1.89,5.23,5.23,0,0,0-1.75-1.33,16.87,16.87,0,0,0-2.75-1q-1.61-.47-3.6-1a30.41,30.41,0,0,1-4.19-1.44,11.38,11.38,0,0,1-3-1.82A6.65,6.65,0,0,1,161,40.56a8.7,8.7,0,0,1-.59-3.36,10.44,10.44,0,0,1,.95-4.55A9.19,9.19,0,0,1,164,29.34a11.92,11.92,0,0,1,3.91-2,16.13,16.13,0,0,1,4.78-.69,18.57,18.57,0,0,1,6.53,1.11,24.37,24.37,0,0,1,5.21,2.63Z" transform="translate(-1 -0.69)"/><path class="cls-1" d="M190.74,32.23v-6.3h6.34v6.3Zm0,28.27V35.69h6.34V60.5Z" transform="translate(-1 -0.69)"/><path class="cls-1" d="M203.62,25.93H210V52.26q0,2.89,2.6,2.89a4.59,4.59,0,0,0,1.21-.19q.69-.19,1.3-.43l.85,5.07a12.22,12.22,0,0,1-3,.95,16.31,16.31,0,0,1-3.08.33,6.35,6.35,0,0,1-4.62-1.59,6,6,0,0,1-1.63-4.52Z" transform="translate(-1 -0.69)"/><path class="cls-1" d="M231.18,61a13.76,13.76,0,0,1-5.4-1A12.17,12.17,0,0,1,219,53.11a13.07,13.07,0,0,1-.92-4.88,13.82,13.82,0,0,1,.9-5,12.18,12.18,0,0,1,2.6-4.12,12.41,12.41,0,0,1,4.14-2.82,13.79,13.79,0,0,1,5.47-1,13.45,13.45,0,0,1,5.42,1,12.49,12.49,0,0,1,4.07,2.79,11.9,11.9,0,0,1,2.56,4.07,13.56,13.56,0,0,1,.88,4.83q0,.62,0,1.18a4.94,4.94,0,0,1-.12.95H224.83a7.35,7.35,0,0,0,.71,2.6,6.38,6.38,0,0,0,3.5,3.17,6.68,6.68,0,0,0,2.37.43,7.32,7.32,0,0,0,3.58-.92,4.89,4.89,0,0,0,2.3-2.44l5.45,1.51a11.07,11.07,0,0,1-4.38,4.66A13.57,13.57,0,0,1,231.18,61Zm6.44-15a6.6,6.6,0,0,0-2.06-4.47,6.64,6.64,0,0,0-6.82-1.23,6.23,6.23,0,0,0-2,1.25,6.51,6.51,0,0,0-1.4,1.94,6.82,6.82,0,0,0-.64,2.51Z" transform="translate(-1 -0.69)"/><path class="cls-1" d="M272,60.5H265.7V46.58a7.26,7.26,0,0,0-1-4.36,3.42,3.42,0,0,0-2.89-1.37,5.45,5.45,0,0,0-1.94.38A7.17,7.17,0,0,0,258,42.29a8.66,8.66,0,0,0-1.59,1.63,6.46,6.46,0,0,0-1,2.08V60.5H249V35.69h5.73v4.59a9.39,9.39,0,0,1,4-3.69,12.75,12.75,0,0,1,5.87-1.33,7.48,7.48,0,0,1,3.79.85,6.16,6.16,0,0,1,2.27,2.23,9.31,9.31,0,0,1,1.11,3.13A20.49,20.49,0,0,1,272,45Z" transform="translate(-1 -0.69)"/><path class="cls-1" d="M276.92,48.09a13.49,13.49,0,0,1,.9-4.92,12,12,0,0,1,2.6-4.07,12.69,12.69,0,0,1,4.12-2.79,13.61,13.61,0,0,1,5.44-1A13.05,13.05,0,0,1,296.92,37a11.2,11.2,0,0,1,4.29,4.59L295,43.5a5.57,5.57,0,0,0-2.13-2.11,6,6,0,0,0-2.94-.73,6,6,0,0,0-2.56.54,6.27,6.27,0,0,0-2.06,1.52A7,7,0,0,0,284,45.06a8.83,8.83,0,0,0-.5,3,8.47,8.47,0,0,0,.52,3,7.62,7.62,0,0,0,1.4,2.37A6.13,6.13,0,0,0,287.43,55a5.93,5.93,0,0,0,2.51.54,6.08,6.08,0,0,0,3.15-.85,4.79,4.79,0,0,0,2-2.08l6.2,1.89a10.43,10.43,0,0,1-4.21,4.64A13.24,13.24,0,0,1,290,61a13.62,13.62,0,0,1-5.45-1A12.34,12.34,0,0,1,277.84,53,13.26,13.26,0,0,1,276.92,48.09Z" transform="translate(-1 -0.69)"/><path class="cls-1" d="M306.08,32.23v-6.3h6.35v6.3Zm0,28.27V35.69h6.35V60.5Z" transform="translate(-1 -0.69)"/><path class="cls-1" d="M330.52,61a13.62,13.62,0,0,1-5.44-1,12.21,12.21,0,0,1-4.1-2.82A12.42,12.42,0,0,1,318.4,53a13.37,13.37,0,0,1-.9-4.88,13.5,13.5,0,0,1,.9-4.92,12.42,12.42,0,0,1,2.58-4.1,12.21,12.21,0,0,1,4.1-2.82,13.62,13.62,0,0,1,5.44-1,13.45,13.45,0,0,1,5.42,1A12.28,12.28,0,0,1,340,39.12a12.44,12.44,0,0,1,2.58,4.1,13.5,13.5,0,0,1,.9,4.92,13.37,13.37,0,0,1-.9,4.88,12.64,12.64,0,0,1-2.56,4.1A12,12,0,0,1,336,59.93,13.62,13.62,0,0,1,330.52,61ZM324,48.14a8.65,8.65,0,0,0,.5,3,7.34,7.34,0,0,0,1.37,2.34A6.13,6.13,0,0,0,328,55a6.28,6.28,0,0,0,5.11,0,6.15,6.15,0,0,0,2.06-1.54,7.28,7.28,0,0,0,1.37-2.37,8.85,8.85,0,0,0,.5-3,8.71,8.71,0,0,0-.5-3,7.29,7.29,0,0,0-1.37-2.37,6.16,6.16,0,0,0-2.06-1.54,6.06,6.06,0,0,0-2.56-.54,5.83,5.83,0,0,0-2.56.57,6.42,6.42,0,0,0-2.06,1.56,7.29,7.29,0,0,0-1.37,2.37A8.71,8.71,0,0,0,324,48.14Z" transform="translate(-1 -0.69)"/></svg>