<?xml version="1.0" encoding="utf-8"?>
<!-- Generator: Adobe Illustrator 21.1.0, SVG Export Plug-In . SVG Version: 6.00 Build 0)  -->
<svg version="1.1" id="Layer_1" xmlns="http://www.w3.org/2000/svg" xmlns:xlink="http://www.w3.org/1999/xlink" x="0px" y="0px"
	 viewBox="0 0 232 194" style="enable-background:new 0 0 232 194;" xml:space="preserve">
<style type="text/css">
	.st0{fill:#FFFFFF;}
	.st1{fill:#24252B;}
	.st2{fill:#3D3C3E;}
	.st3{fill:none;stroke:#3D3C3E;stroke-width:0;stroke-linecap:round;stroke-linejoin:round;}
	.st4{fill:#91774D;}
</style>
<g>
	<path class="st0" d="M25.8,187.3v2.2H3.4v-33.6h22v2.2H5.8v13.2h17.1v2.1H5.8v14H25.8z"/>
	<path class="st0" d="M32.8,154.9h2.4v29.7c0,0.9,0.3,1.6,0.8,2.2c0.5,0.5,1.2,0.8,2.2,0.8c0.3,0,0.8,0,1.3-0.1
		c0.5-0.1,0.9-0.2,1.3-0.4l0.5,1.9c-0.5,0.2-1.2,0.4-2,0.5c-0.8,0.1-1.5,0.2-2,0.2c-1.3,0-2.4-0.4-3.2-1.2c-0.8-0.8-1.2-1.9-1.2-3.2
		V154.9z"/>
	<path class="st0" d="M65.3,164.6c-0.2-0.2-0.6-0.5-1.2-0.9c-0.6-0.4-1.3-0.7-2.1-1.1c-0.8-0.4-1.7-0.7-2.7-0.9c-1-0.3-2-0.4-3-0.4
		c-1.8,0-3.1,0.3-4,1c-0.9,0.7-1.3,1.6-1.3,2.8c0,0.7,0.2,1.3,0.5,1.7c0.3,0.5,0.8,0.9,1.4,1.2c0.6,0.3,1.4,0.7,2.4,0.9
		s2.1,0.6,3.3,0.9c1.6,0.4,3.1,0.9,4.5,1.4s2.5,1.1,3.4,1.9c0.9,0.8,1.6,1.7,2.2,2.7c0.5,1.1,0.8,2.4,0.8,3.9c0,1.8-0.3,3.3-1,4.6
		c-0.7,1.3-1.6,2.3-2.7,3.1c-1.1,0.8-2.5,1.4-4,1.7c-1.5,0.4-3.1,0.5-4.7,0.5c-2.5,0-5-0.4-7.5-1.1c-2.5-0.8-4.7-1.8-6.6-3.2
		l2.9-5.6c0.3,0.3,0.8,0.7,1.5,1.1c0.7,0.5,1.6,0.9,2.6,1.4c1,0.5,2.1,0.8,3.4,1.2c1.2,0.3,2.5,0.5,3.8,0.5c3.6,0,5.4-1.2,5.4-3.5
		c0-0.8-0.2-1.4-0.6-1.9s-1-0.9-1.8-1.3c-0.8-0.4-1.7-0.7-2.7-1c-1.1-0.3-2.3-0.6-3.6-1c-1.6-0.4-3-0.9-4.2-1.4
		c-1.2-0.5-2.2-1.1-3-1.8c-0.8-0.7-1.4-1.5-1.8-2.5c-0.4-0.9-0.6-2.1-0.6-3.4c0-1.7,0.3-3.2,0.9-4.5c0.6-1.3,1.5-2.4,2.6-3.3
		c1.1-0.9,2.4-1.6,3.9-2s3.1-0.7,4.8-0.7c2.4,0,4.5,0.4,6.5,1.1c2,0.7,3.7,1.6,5.2,2.6L65.3,164.6z"/>
	<path class="st0" d="M74.5,161.2v-6.3h6.3v6.3H74.5z M74.5,189.4v-24.8h6.3v24.8H74.5z"/>
	<path class="st0" d="M87.4,154.9h6.3v26.3c0,1.9,0.9,2.9,2.6,2.9c0.3,0,0.8-0.1,1.2-0.2c0.5-0.1,0.9-0.3,1.3-0.4l0.9,5.1
		c-0.9,0.4-1.8,0.7-3,0.9c-1.1,0.2-2.2,0.3-3.1,0.3c-2,0-3.5-0.5-4.6-1.6s-1.6-2.6-1.6-4.5V154.9z"/>
	<path class="st0" d="M114.9,189.9c-2,0-3.8-0.3-5.4-1c-1.6-0.7-3-1.6-4.1-2.8c-1.1-1.2-2-2.5-2.6-4.1c-0.6-1.5-0.9-3.2-0.9-4.9
		c0-1.8,0.3-3.4,0.9-5c0.6-1.6,1.5-2.9,2.6-4.1c1.1-1.2,2.5-2.1,4.1-2.8c1.6-0.7,3.4-1,5.5-1c2,0,3.8,0.3,5.4,1
		c1.6,0.7,3,1.6,4.1,2.8c1.1,1.2,2,2.5,2.6,4.1c0.6,1.5,0.9,3.2,0.9,4.8c0,0.4,0,0.8,0,1.2s-0.1,0.7-0.1,0.9h-19.2
		c0.1,1,0.3,1.8,0.7,2.6c0.4,0.8,0.9,1.4,1.5,1.9c0.6,0.5,1.3,0.9,2,1.2c0.8,0.3,1.5,0.4,2.4,0.4c1.3,0,2.5-0.3,3.6-0.9
		c1.1-0.6,1.9-1.4,2.3-2.4l5.4,1.5c-0.9,1.9-2.4,3.4-4.4,4.7C120.1,189.3,117.7,189.9,114.9,189.9z M121.4,175
		c-0.2-1.9-0.8-3.4-2.1-4.5c-1.2-1.1-2.7-1.7-4.4-1.7c-0.9,0-1.6,0.2-2.4,0.5c-0.7,0.3-1.4,0.7-2,1.3s-1,1.2-1.4,1.9
		c-0.4,0.8-0.6,1.6-0.6,2.5H121.4z"/>
	<path class="st0" d="M155.8,189.4h-6.3v-13.9c0-2-0.3-3.4-1-4.4c-0.7-0.9-1.7-1.4-2.9-1.4c-0.6,0-1.3,0.1-1.9,0.4
		c-0.7,0.3-1.3,0.6-1.9,1.1c-0.6,0.5-1.1,1-1.6,1.6c-0.5,0.6-0.8,1.3-1,2.1v14.5h-6.3v-24.8h5.7v4.6c0.9-1.6,2.2-2.8,4-3.7
		c1.7-0.9,3.7-1.3,5.9-1.3c1.5,0,2.8,0.3,3.8,0.9c1,0.6,1.7,1.3,2.3,2.2c0.5,0.9,0.9,2,1.1,3.1s0.3,2.4,0.3,3.6V189.4z"/>
	<path class="st0" d="M160.7,177c0-1.7,0.3-3.4,0.9-4.9c0.6-1.5,1.5-2.9,2.6-4.1c1.1-1.2,2.5-2.1,4.1-2.8c1.6-0.7,3.4-1,5.4-1
		c2.7,0,5,0.6,6.9,1.8s3.3,2.7,4.3,4.6l-6.2,1.9c-0.5-0.9-1.2-1.6-2.1-2.1c-0.9-0.5-1.9-0.7-2.9-0.7c-0.9,0-1.8,0.2-2.6,0.5
		c-0.8,0.4-1.5,0.9-2.1,1.5c-0.6,0.6-1,1.4-1.4,2.3c-0.3,0.9-0.5,1.9-0.5,3c0,1.1,0.2,2.1,0.5,3c0.3,0.9,0.8,1.7,1.4,2.4
		c0.6,0.7,1.3,1.2,2.1,1.5c0.8,0.4,1.6,0.5,2.5,0.5c1.1,0,2.2-0.3,3.1-0.9c1-0.6,1.6-1.3,2-2.1l6.2,1.9c-0.9,1.9-2.3,3.4-4.2,4.6
		c-2,1.2-4.3,1.8-7.1,1.8c-2,0-3.8-0.3-5.4-1c-1.6-0.7-3-1.6-4.1-2.8c-1.1-1.2-2-2.6-2.6-4.1C161,180.4,160.7,178.7,160.7,177z"/>
	<path class="st0" d="M189.8,161.2v-6.3h6.3v6.3H189.8z M189.8,189.4v-24.8h6.3v24.8H189.8z"/>
	<path class="st0" d="M214.3,189.9c-2,0-3.8-0.3-5.4-1c-1.6-0.7-3-1.6-4.1-2.8c-1.1-1.2-2-2.5-2.6-4.1c-0.6-1.5-0.9-3.2-0.9-4.9
		c0-1.7,0.3-3.4,0.9-4.9s1.5-2.9,2.6-4.1c1.1-1.2,2.5-2.1,4.1-2.8c1.6-0.7,3.4-1,5.4-1c2,0,3.8,0.3,5.4,1s3,1.6,4.1,2.8
		c1.1,1.2,2,2.5,2.6,4.1s0.9,3.2,0.9,4.9c0,1.7-0.3,3.3-0.9,4.9c-0.6,1.5-1.5,2.9-2.6,4.1c-1.1,1.2-2.5,2.1-4.1,2.8
		C218.1,189.6,216.3,189.9,214.3,189.9z M207.8,177.1c0,1.1,0.2,2.1,0.5,3s0.8,1.7,1.4,2.3s1.3,1.2,2.1,1.5c0.8,0.4,1.6,0.5,2.6,0.5
		c0.9,0,1.8-0.2,2.6-0.5c0.8-0.4,1.5-0.9,2.1-1.5c0.6-0.7,1-1.5,1.4-2.4c0.3-0.9,0.5-1.9,0.5-3c0-1.1-0.2-2.1-0.5-3
		c-0.3-0.9-0.8-1.7-1.4-2.4c-0.6-0.7-1.3-1.2-2.1-1.5c-0.8-0.4-1.6-0.5-2.6-0.5c-0.9,0-1.8,0.2-2.6,0.6s-1.5,0.9-2.1,1.6
		s-1,1.5-1.4,2.4C208,175,207.8,176,207.8,177.1z"/>
</g>
<g>
	<circle class="st1" cx="114.8" cy="66.8" r="56.9"/>
	<path class="st0" d="M132.8,104.5c0.1-6.2-1.5-12.1-2.5-18.1c0-0.1,0-0.3,0-0.4c-0.1-1.8-0.2-3.8-0.7-5.5c-0.2-0.8-0.6-1.4-1-1.9
		c-0.4-1.8-0.8-3.6-1-5.4c-0.4-3.4-4-4-6.2-2.4c-0.6-1.4-1.7-2-3-2c-1.6-0.7-3.8-0.3-4.9,1.4c-0.1,1.7-0.4,3.4-0.8,5
		c0,0.1-0.2,0.2-0.3,0.2c-1.7,0-3.4-0.5-5-1c-0.8-0.3-1.9-0.7-2.6-1.4c-1.4,0.2-2.3,1-2.9,2c-0.5,0.3-1.7,0.6-2.2,0.9
		c-0.3,0.1-0.5,0.3-0.8,0.4c-1-1.9-3.7-3.2-5.7-1.4c-1.6,1.5-2.5,3.8-3.4,5.8c-0.4,0.9-0.8,1.9-1.1,2.8c-0.6,1.5-1.3,3-2,4.5
		c-0.6,1.4-1.2,2.8-1.8,4.2c-0.2,0.4-0.6,1.5-0.8,2.2c0,0,0,0-0.1,0.1c-0.1,0.7-0.3,1.4-0.4,2c-0.1,1-0.3,2.1-0.6,3.1
		c0.3,0.6,0.8,1.2,1.4,1.6c-0.1,0.9-0.4,1.7-0.7,2.6c0,0,0,0,0,0.1c-0.3,2.1-0.6,4.3-0.8,6.4c0.4,0.5,0.9,0.8,1.4,1.1
		c0.9-0.2,1.8-0.6,2.7-0.9c1.5-0.5,2.4-0.9,3.4-2.2c0.1-0.2,0.4-0.2,0.6,0c0.8,1.4,1.6,2.8,2.4,4.2c0.7,1.2,1.6,2.2,2.2,3.4
		c0.6,1.2,0.9,2.4,0.9,3.6c1.2-0.9,2.2-1.9,3.3-2.8c0.1-0.1,0.4,0,0.5,0.1c0.8,1.5,2,2.5,3,3.8c0.5,0.6,0.9,1.4,1.3,2.1
		c2.6,0.1,5.3-0.3,8,0c2.5,0.3,5,0.6,7.5,0.7c0,0,0,0,0.1,0c4.8-0.7,9.2-2.7,13.8-3.9C133.4,114.5,132.8,109.5,132.8,104.5z"/>
	<path class="st0" d="M114.8,9.9c-21.5,0-40.2,11.9-49.9,29.5c0.5,1.6,1.1,3.2,1.8,4.9C73.6,61,71.2,77.5,81,82.2
		c9.9,4.7,20.7-10.2,33.8-10.7l0-1.9l0,1.9c13,0.5,23.9,15.4,33.8,10.7c9.9-4.7,7.5-21.2,14.3-37.9c0.7-1.7,1.3-3.3,1.8-4.9
		C155,21.8,136.3,9.9,114.8,9.9z"/>
	<path class="st1" d="M94,40.7c0.7-0.1,0.9,0.1,1.3,0.3c0.4,0.2,0.7,0.3,1.1,0.4c0.7,0.2,1.5,0.3,2.2,0.3c0.7,0,1.5-0.2,2.2-0.4
		c0.4-0.1,0.7-0.3,1-0.4l1.1-0.6c1.6-0.8,3.2-1.4,5-1.9c1.7-0.5,3.5-0.7,5.3-0.8l0.1,2.8c-1.6,0.1-3.2,0.3-4.8,0.6
		c-1.6,0.3-3.1,0.8-4.6,1.4l-1.2,0.5c-0.4,0.2-0.9,0.3-1.3,0.5c-0.9,0.2-1.9,0.4-2.8,0.3c-1-0.1-1.9-0.4-2.7-0.8
		c-0.4-0.2-0.8-0.5-1.1-0.8c-0.2-0.2-0.3-0.3-0.5-0.5C94.1,41.3,94,41.1,94,40.7z"/>
	<path class="st1" d="M137.6,39.8c-1.1,0.9-2.4,1.7-3.8,2.2c-1.4,0.5-2.9,0.8-4.4,0.9c-0.8,0-1.6-0.1-2.4-0.2
		c-0.8-0.2-1.5-0.4-2.2-0.6c-1.4-0.5-2.6-1-3.7-1.2l0.5-2.8c1.6,0.2,3,0.8,4.2,1.3c1.3,0.5,2.4,0.9,3.6,1c1.2,0.2,2.6,0,3.9-0.1
		C134.7,40.2,136.1,39.9,137.6,39.8z"/>
	<path class="st1" d="M132.9,38.7c-2.1-1.5-4-3.3-6.1-4.5c-1-0.6-2.1-1-3.2-1.2c-1.1-0.1-2.1,0-3.1,0.4l-0.7-3.2
		c1.5-0.2,3.1-0.1,4.5,0.4c1.4,0.5,2.6,1.3,3.7,2.2c2.1,1.8,3.5,3.9,5.3,5.8L132.9,38.7z"/>
	<path class="st1" d="M88.8,82.4c-0.3-0.4-0.6-0.8-0.9-1.3c-0.3-0.5-0.5-0.9-0.8-1.4c-0.5-0.9-1-1.9-1.2-3c-0.2-1.1-0.2-2.2,0.1-3.3
		c0.3-1.1,1-2.1,1.9-2.6c-0.6,0.9-0.9,1.8-1,2.8c-0.1,0.9,0,1.9,0.2,2.9c0.2,0.9,0.4,1.9,0.6,2.9c0.1,0.5,0.3,1,0.5,1.5
		C88.5,81.4,88.7,81.9,88.8,82.4L88.8,82.4z"/>
	<path class="st1" d="M95.2,40.1c0,0-1.9,0.5-2-1c0,0-0.4,0.9-1.6,1.5c0,0,1.5,0,4,1.9L95.2,40.1z"/>
	<path class="st1" d="M89.8,69.7c0.6-0.2,1.1-0.1,1.7,0.1c0.5,0.2,1.1,0.4,1.5,0.7c0.5,0.3,0.9,0.7,1.3,1c0.4,0.4,0.8,0.8,1.2,1.2
		l-1.4,1c-0.2-0.4-0.5-0.9-0.8-1.3c-0.3-0.4-0.6-0.8-0.9-1.2c-0.3-0.4-0.7-0.7-1.1-0.9c-0.4-0.3-0.9-0.4-1.4-0.4L89.8,69.7z"/>
	<path class="st1" d="M85.9,75.5c-0.2-1.3-0.3-2.5-0.3-3.8c0-1.3,0-2.6,0.3-3.9l0.1-0.3h0.4c0.9,0.1,1.8,0.4,2.6,0.7
		c0.8,0.3,1.6,0.8,2.3,1.5L91,70c-0.6-0.6-1.4-0.9-2.2-1.2c-0.8-0.3-1.7-0.4-2.5-0.5l0.4-0.3c-0.2,1.2-0.3,2.4-0.2,3.6
		c0,1.2,0.2,2.5,0.3,3.7L85.9,75.5z"/>
	<path class="st1" d="M69.2,47.7c-0.6-1.2-1.2-2.5-1.7-3.8c-0.5-1.3-0.9-2.6-1.4-3.9l-0.6-1.9c-0.5,1-1,1.9-1.6,2.9
		c0.6,1.2,1.4,2.5,2.1,3.6c0.8,1.2,1.6,2.4,2.4,3.5c0.9,1.1,1.8,2.2,2.8,3.2C70.5,50.2,69.8,49,69.2,47.7z"/>
	<path class="st1" d="M160.4,47.7c0.6-1.2,1.2-2.5,1.7-3.8c0.5-1.3,0.9-2.6,1.4-3.9l0.6-1.9c0.5,1,1,1.9,1.6,2.9
		c-0.6,1.2-1.4,2.5-2.1,3.6c-0.8,1.2-1.6,2.4-2.4,3.5c-0.9,1.1-1.8,2.2-2.8,3.2C159.1,50.2,159.8,49,160.4,47.7z"/>
	<path class="st1" d="M93.4,40c1.2-0.1,2,0,2.8-0.4c0.9-0.4,1.7-0.9,2.4-1.5c1.5-1.2,3-2.6,4.5-3.9c1.5-1.4,3.2-2.7,5.4-3.6
		c1.1-0.4,2.3-0.6,3.5-0.6c1.2,0,2.4,0.4,3.5,0.8l-1.4,3c-1.5-0.8-3.1-1.1-4.7-0.6c-1.6,0.5-3.3,1.5-4.9,2.7
		c-1.6,1.2-3.2,2.5-4.9,3.6c-0.9,0.6-1.8,1.1-2.8,1.4L96.4,41c-0.1,0-0.3,0.1-0.4,0.1c-0.3,0.1-0.6,0.1-0.9,0.1c-0.5,0-1.1,0-1.5,0
		L93.4,40z"/>
	<path class="st1" d="M112.7,46.5c-7,2.9-13.5,0.7-13.5,0.7s3.5,5.2,13.3,6.2L112.7,46.5z"/>
	<path class="st1" d="M122.4,46.5c0.3,1.7,0.5,3.4,0.8,5.1c4.7-2.5,8.4-6.5,8.4-6.5C127.9,46.3,124.9,46.6,122.4,46.5z"/>
	<g>
		<g>
			<path class="st2" d="M121.8,100.1c-0.1-0.5-0.4-1-0.7-1.4c-0.2-0.3-0.7-0.6-1.1-0.4c0.6,0.8,0.9,1.9,1.1,2.8
				c0.3,1.7,0.4,3.4-0.1,5.1c0,0,0,0,0,0l0.1-0.1c0.1-0.2,0.2-0.5,0.4-0.7C122.2,103.7,122.3,101.9,121.8,100.1z"/>
			<path class="st2" d="M127.1,92.9l-0.2-0.2l-0.1,0c0.7,1.9,0.4,4.5-0.5,6.3l0.2-0.2C127.6,97.7,128,94,127.1,92.9z"/>
			<path class="st1" d="M132.2,105.2c0,2.1,0,4.4,0.1,6.5c0.1,2.2,0.2,4.5,0.3,6.7l0.1,1.6c0,0.2,0,0.4,0,0.6
				c0.6-0.3,1.3-0.5,1.9-0.7c0-0.5,0-0.9,0-1.4c-0.1-4.9-0.2-10-0.7-15c-0.3-2.8-0.4-5.6-0.5-8.3c0-0.7-0.1-1.3-0.1-2
				c0-0.4,0-0.7,0-1.1c-0.1-2.3-0.2-4.7-0.9-7l-0.1-0.1c-0.3-0.3-0.6-0.6-0.9-0.8c0,0-0.1-0.1-0.1-0.1c-0.1-0.1-0.2-0.1-0.2-0.2
				c-0.2-0.1-0.3-0.2-0.5-0.3c0,0,0.1,0,0.1-0.1c0-0.1-0.1-0.3-0.1-0.4c-0.1-0.1-0.2,0-0.2,0.1c0.1,0.1,0.1,0.2,0.2,0.3
				c-0.2-0.1-0.5-0.3-0.7-0.4c0.7,1,1,2.4,1.1,3.5c0.2,2-0.4,4.7-2.1,5.9l0.1,0c0,0,0.1,0,0.1,0c0.1,0,0.3,0,0.4-0.1
				c0.9-0.5,1.6-1.8,1.6-2.9c0.4,1.1,0.6,2.2,0.7,3.3c0.1,2.3,0.2,4.7,0.3,7.1C132.1,101.8,132.1,103.5,132.2,105.2z"/>
			<path class="st1" d="M125,81.4c-3.6-2.7-7.7-4.6-11.3-6c0-0.2,0-0.4,0.1-0.6c0.1-0.6,0.1-1.2,0.2-1.8c0.1-2.2,0.1-4.5,0.1-6.8
				c0-1.6-0.1-3.3-0.1-4.9c0-0.7-0.1-1.4-0.1-2.1c0-0.7-0.1-1.4-0.1-2.1c-0.1-1.5-0.1-3-0.1-4.5l0-0.6c0-4.4,0-8.9,0.6-13.3
				c0-0.4,0.1-0.8,0.1-1.1c0.1-0.6,0.1-1.2,0.2-1.9c0.2-0.9,0.3-1.7,0.6-2.4c0.4-1,1-1.7,1.6-2.3l0,0.1l0,0
				c-0.2,1.7,0.1,3.5,0.6,5.1c0,0.1,0.1,0.1,0.2,0c0-2.6-0.2-5.2,0.9-7.4c0.2-0.3,0.5-0.7,0.8-0.9c0.1-0.1,0.2-0.1,0.2-0.1
				c0,0,0,0.1,0,0.1c0.1,0.8,0.1,1.5,0.2,2.3c0,0,0,0.1,0,0.1c0,0,0,0.1,0,0.1c0.1,1.6,0.2,3.2,0.3,4.8c0,0.2,0,0.5,0,0.7
				c0,0.1,0,0.3,0,0.4c0.3-1.7,0.6-3.4,0.7-5.1c-0.2-2.1-0.1-4.2-0.1-6.3c0,0-0.1,0-0.1,0.1c-0.1,0-0.2,0-0.2,0.1c0,0-0.1,0-0.1,0.1
				c-1.4,0.7-2.6,1.9-3.1,3.4c0,0-0.1,0-0.1,0.1l-0.1,0.1c-1.2,1.2-2.4,2.5-3.2,4.1c-0.8,1.7-1,3.6-1.1,5.4l0,0.5l-0.2,0.1l-0.5,5.3
				l-0.1,0l0,0.3c0,0.6,0,1.3-0.1,2.1c0,0.4-0.1,0.8-0.1,1.2l0,0.4l0.1,0c0,0.3,0,0.6,0,0.9c0,1-0.1,2-0.1,3.1c0,2.5,0,5.2,0.1,8.4
				c0,1.4,0.1,2.9,0.2,4.3c0,0.2,0,0.4,0,0.5c-0.1,2-0.1,3.9-0.2,5.9c-0.1,1-0.3,2.3-0.3,3.4c-1.3-0.2-2.6-0.8-3.8-1.1
				c-1.8-0.4-3.5-1.1-5.2-1.7c0,0,0,0,0,0c0,0-0.1,0-0.1,0c-1.9-0.5-4.3-1.2-6-0.5c-0.1,0.1-0.3,0.1-0.4,0.2c-0.4,0.2-0.7,0.5-1,0.8
				c0,0,0,0,0,0c-0.2,0.2-0.5,0.5-0.7,0.8c0,0-0.1,0.1-0.1,0.1c-0.2,0.3-0.4,0.6-0.6,0.8c-0.1,0.1-0.2,0.2-0.3,0.3
				c-0.6,0.7-1.1,1.4-1.6,2.1c-0.5,0.9-1,1.7-1.5,2.5c-0.8,1.4-1.4,2.9-2.3,4.2c0,0,0,0.1,0,0.1c-1.2,1.8-2.2,3.7-2.7,5.8
				c-0.3,1.1-0.5,2.2-0.7,3.4c-0.4,2.9-1,5.9-2.3,8.8c0,0.1-0.1,0.2-0.1,0.3c0,0,0,0.1,0,0.2l-0.1,0.3l1.5,0.1c0,0.1,0,0.2-0.1,0.3
				c-0.1,0.5-0.2,1-0.3,1.5c-0.1,0.7-0.1,1.3-0.2,2c0,0.7-0.1,1.3-0.2,2c-0.1,0.5-0.2,1-0.3,1.5c0,0.2-0.1,0.4-0.1,0.6
				c0,0.1-0.1,0.2-0.1,0.4c-0.1,0.2-0.1,0.5-0.1,0.7c0,0.5,0.2,0.7,0.3,0.8c0.2,0.1,0.5,0.2,0.9,0c0.6-0.2,1.1-0.3,1.8-0.5
				c1.4-0.2,2.7-0.8,3.9-1.5c0.8-0.5,1.4-1.1,1.8-1.8c0.5,1.8,1.3,3.6,2.4,5.5l0.1,0.2c1.1,1.8,2.2,3.8,2.7,5.8
				c0,0.1,0.1,0.2,0.1,0.3l0.2,0.5l0.4-0.3c0.2-0.2,0.5-0.4,0.7-0.6c0.8-0.6,1.7-1.3,2.4-2.2c0.9,1.8,2.2,3.3,3.4,4.8
				c1,0.1,2,0.3,3,0.7c0-1.1,0-2.2,0-3.3c0-1.4,0-2.8,0.1-4.2c0-1.2,0-2.3,0-3.5l0-0.3c0.2,0.1,0.3,0.2,0.5,0.2l0,0
				c0.2,0.1,0.4,0.2,0.6,0.3c0,0,0,0,0,0c0.4,0.2,0.8,0.3,1.2,0.3c0.1,0,0.1,0,0.1,0c0.3,0.1,0.6,0.1,0.9,0.2l0.4,0
				c-0.4-0.2-0.8-0.4-1.2-0.7c0,0,0,0,0,0c-0.2-0.1-0.4-0.3-0.6-0.3c-0.3-0.2-0.6-0.3-0.8-0.5c-1-0.7-1.6-1.6-2.2-2.6
				c0-0.1-0.1-0.1,0-0.2c0.6,0,1.3-0.3,1.8-0.6c0.5-0.1,0.7-0.2,0.9-0.5l0.2-0.3c-1.7,0.3-2.4-0.1-3.2-1.5c0,0-0.1-0.2,0-0.3
				c0-0.1,0.1-0.2,0.2-0.2c0.1,0,0.2-0.1,0.2-0.1l0.2-0.1c0.5-0.2,1.1-0.4,1.5-0.8l0.4-0.4c-1.1,0.6-2.4,0.7-3.7,0.9
				c-1.7,0.2-3.3,0.3-5,0.1c-1.6-0.2-3.3-0.6-4.8-1.1c-0.7-0.2-1.5-0.5-2.1-0.9c-0.3-0.2-0.6-0.5-0.9-0.7l0,0
				c0.2,0.2,0.4,0.4,0.7,0.7c0.2,0.2,0.5,0.6,0.8,0.7c0.1,0,0.1,0.1,0.1,0.1c0.2,0,0.4,0.4,0.2,0.6c-1.3,1.4-3.3,2.3-5.2,2.3l0,0
				c0.8,0.5,1.7,0.3,2.4,0.2c0.1,0,0.1,0,0.2,0c-0.2,0.9-0.6,1.6-1.4,2.1c-0.7,0.5-1.5,0.9-2.5,1.2c-0.8,0.2-1.5,0.4-2.3,0.6
				l-0.6,0.2c0-0.1,0-0.1,0-0.2c0.4-1.3,0.6-2.6,0.7-4.1c0.1-1,0.2-2.1,0.3-3.1l0-0.4c0.1-0.9,0.5-1.6,1.1-2.1c1-0.9,2-1.8,3.1-2.7
				l0.3-0.3c0.6-0.5,1.1-1,1.7-1.4c0.8-0.6,1.8-0.9,2.8-0.9c1.7,0,3.3,0,5,0c1.5,0,3,0,4.4,0l0.8,0c2.3,0,4.7,0,7-0.3
				c0.4,0,0.8-0.1,1.2-0.2c1.2-0.5,2.4-1,3.5-1.6c0.3-0.2,0.6-0.4,0.8-0.6c-0.1,0-0.1,0-0.2,0c-2,0.8-4.2,0.9-6.8,0.9
				c-3,0-6,0-9-0.1c-1.7,0-3.4-0.1-5.1-0.1c-0.9,0-1.6,0-2.3,0.1c-0.9,0.2-1.8,0.6-2.6,1.2l-0.2,0.1c-0.2,0.2-0.4,0.3-0.6,0.5
				l0.1-0.8c0.2-1.2,0.3-2.4,0.5-3.6c0.1-0.3,0.2-0.6,0.3-0.9l0.1-0.2c0.3-0.7,0.9-1.2,1.7-1.4c0.4-0.1,0.8-0.1,1.3-0.2
				c0.2,0,0.4,0,0.5,0c0.6-0.1,1.2-0.1,1.8-0.2c1.4-0.2,2.8-0.3,4.2-0.4c1.7-0.1,3.4-0.2,5-0.4c1.3-0.1,2.5-0.2,3.8-0.3
				c3.1-0.5,6.2-1.2,9.3-2.2c-2.4,0.4-4.9,0.6-7.3,0.7c-0.7,0-1.5,0.1-2.2,0.1c-0.2,0-0.5-0.1-0.7-0.2c-1.2-0.4-2.2-0.8-3.2-1.3
				c-0.7-0.3-1.4-0.5-2-0.8c-1.4-0.5-2.9-1.1-4.2-2l-1-0.7l0.5,1.1c0.5,1.1,1.5,1.7,2.6,2.3c-0.1,0.1-0.2,0.2-0.3,0.3
				c-1,0.7-2,1.3-2.9,1.9c-0.1,0.1-0.4,0.1-0.6,0.2c-0.6,0.1-1.2,0.2-1.7,0.2c-0.7,0.1-1.4,0.2-2.1,0.3c-2.4,0.4-3.9,1.7-4.6,3.9
				c-0.5,1.5-0.5,3-0.2,4.9c0.1,0.4,0,0.5-0.3,0.8c-1.6,1.4-3.1,2.9-4.3,4c-0.1,0.1-0.3,0.2-0.4,0.2l0.1-0.3
				c0.1-0.2,0.2-0.4,0.3-0.6c0.2-0.4,0.4-0.8,0.6-1.3c0.9-2.2,1.2-4.4,1.5-6.6c0.3-2.4,0.9-4.2,1.9-5.9c0.4-0.7,0.7-1.3,1-1.8
				c0,0,0,0.1,0,0.1c0.2-0.5,0.4-1,0.7-1.5c1.6-3.1,3.7-6,5.5-8.5c0.4-0.6,1-1.1,1.5-1.6c0.4-0.3,0.8-0.5,1.2-0.4
				c0.2,0,0.5,0.1,0.7,0.1c0.7,0.1,1.5,0.2,2.2,0.4c2.2,0.6,4.8,1.3,7.3,2.1c3.5,1.1,6.9,2.6,10.2,3.9c1.4,0.6,2.9,1.2,4.3,1.8
				c0.5,0.2,1,0.4,1.6,0.6l3,1.2L125,81.4z M100.9,115.6c0.4-0.9,0.6-1.8,0.6-2.9l0-0.6c0-1.7,0.1-3.4-0.2-5
				c-0.1-0.4-0.1-0.7-0.2-1.1l0-0.2l0.9-0.1c0.2,0,0.3,0,0.5,0c0.3,1.5,1.2,2.6,2.1,3.7c0.1,0.2,0.2,0.4,0.3,0.7
				c0.1,0.9,0.1,1.5,0.1,2.2c0,1.6-0.1,3.6-0.2,5.5c0,0.9-0.1,1.8-0.2,2.7c0,0.1,0,0.3,0,0.4c-1.3-1.5-2.5-2.9-3.5-4.5
				C100.8,116,100.8,115.9,100.9,115.6z M93.8,104.2l0.2,0.1c1.6,0.7,3.3,1.4,5.3,1.5c0.3,2.3,0.6,5.1,0.4,7.8
				c-0.1,1.6-0.7,2.9-1.8,4.2c-0.2,0.3-0.5,0.5-0.8,0.8l0,0c0-0.1-0.1-0.2-0.1-0.4c-0.1-0.3-0.2-0.6-0.3-0.9c-0.7-1.6-1.4-3-2.4-4.4
				c-0.7-0.9-1.1-1.8-1.4-2.6c-0.3-1-0.6-1.9-0.9-2.9c-0.2-0.5-0.3-1-0.5-1.4c0-0.1,0-0.1,0-0.2L93.8,104.2z"/>
		</g>
		<line class="st3" x1="119.7" y1="26.7" x2="119.7" y2="26.7"/>
		<path class="st1" d="M132.7,87.9c-0.1-1.9-0.5-3.7-1.3-5.4c-1-3.3-2-6.7-2.9-10.1c-0.6-2.2-1.1-4.3-1.7-6.5
			c-0.5-2.2-1-4.3-1.3-6.5l-2.4-13.3l-1.2-6.6l-0.6-3.3l-0.4-1.7l-0.2-0.8l-0.1-0.4l-0.1-0.2c0-0.1-0.1-0.2-0.1-0.3l-0.3,0.2
			c0,0.6,0,1.2-0.1,1.8c0,0.6,0,1.3,0,1.9l0.6,3.2c0.4,2.2,0.8,4.4,1.2,6.6c0.8,4.4,1.4,8.9,2.1,13.3c0.3,2.2,0.7,4.5,1.2,6.7
			c0.5,2.2,1,4.4,1.5,6.6c0.5,2.2,1,4.4,1.6,6.6l0.2,0.8c0,0,0.1,0.1,0.1,0.1c0.3,1,0.7,1.9,1,2.8c0.8,2.2,1.4,4.3,1.9,6.5
			c0.1,0.3,0.6,0.3,0.6-0.1c-0.1-0.6-0.2-1.2-0.3-1.8c0,0,0.1,0,0.1,0c0,0,0,0.1,0,0.1c0,0.1,0.1,0.1,0.2,0.1c0,0.3,0.1,0.5,0.1,0.8
			c0,0.1,0,0.2,0.1,0.2c0,0.3,0,0.5,0,0.8c0,0.3,0.6,0.3,0.6,0c0-0.3,0-0.6,0-0.9c0-0.1,0-0.1,0-0.2
			C132.8,88.6,132.8,88.3,132.7,87.9z"/>
	</g>
	<path class="st1" d="M107.1,23.2c-0.5,0.4-1.1,0.7-1.8,0.8c-0.4,0-0.7,0-1.1-0.2c-0.4-0.1-0.7-0.4-1-0.7c-0.6-0.6-0.7-1.4-0.8-2.1
		c-0.1-0.7,0-1.4,0.1-2.1c0.3-1.3,0.9-2.5,1.7-3.6c0.8-1.1,1.7-2,2.8-2.6c-0.6,1.1-1.2,2.2-1.8,3.3c-0.5,1.1-1,2.2-1.2,3.3
		c-0.2,0.6-0.2,1.1-0.2,1.7c0,0.5,0.1,1.1,0.3,1.4c0.3,0.4,0.6,0.7,1.2,0.8C105.9,23.4,106.5,23.3,107.1,23.2z"/>
	<path class="st1" d="M107.3,21c0,0-0.9-2.5,1.8-5.2c2.6-2.7,4.6-1.2,3.3,1.4S108.4,19.7,107.3,21z"/>
	<path class="st1" d="M123.1,23.2c0.6,0.1,1.3,0.2,1.8,0.1c0.5-0.1,0.9-0.4,1.2-0.8c0.2-0.4,0.3-0.9,0.3-1.4c0-0.5-0.1-1.1-0.2-1.7
		c-0.3-1.1-0.7-2.2-1.2-3.3c-0.5-1.1-1.2-2.1-1.8-3.3c1.1,0.7,2.1,1.6,2.8,2.6c0.8,1.1,1.4,2.3,1.7,3.6c0.1,0.7,0.2,1.4,0.1,2.1
		c-0.1,0.7-0.2,1.5-0.8,2.1c-0.3,0.3-0.6,0.5-1,0.7c-0.4,0.1-0.8,0.2-1.1,0.2C124.2,23.9,123.6,23.6,123.1,23.2z"/>
	<path class="st1" d="M122.9,21c0,0,0.9-2.5-1.8-5.2c-2.6-2.7-4.6-1.2-3.3,1.4S121.9,19.7,122.9,21z"/>
	<path class="st1" d="M92.7,108.9c0,0,1.1-1.5,2.1-1c1,0.5,5.5,2.5,5.9,2.6c0.4,0.1,0,5.8,0,5.8s1-5.4,2.9-3.7
		c1.8,1.8,2.3,4.2,2.3,4.2l-0.7-6.3l-1.8-3.4l-0.6-1.7l-3.2-0.6l-5.8-1.4l-2,1.8l-0.7,0.8l0.8,3.9L92.7,108.9z"/>
	<path class="st0" d="M141.6,112.4c0.7-17.4,7-25.7,7-25.7s-10.3,9.5-12.7,9.7v18.2L141.6,112.4z"/>
	<path class="st1" d="M109.7,51.6c0.8,15.2-3.9,21.7-4.2,22.4s6.9,1.1,6.9,1.1V58.6l-0.1-7.9L109.7,51.6z"/>
	<path class="st1" d="M105.5,14.2c0,0-4.2,6-1.4,9.5c0,0-3.5,0-3.9-3.4C99.9,16.9,105.5,14.2,105.5,14.2z"/>
	<path class="st1" d="M109.9,49.7c0,0,1.2-12.8,3.1-14.5l-0.7,14.5l-2.6,0.4"/>
	<path class="st1" d="M132.9,120.7l-0.7-10.5c-0.7,5-1.8,8.1-8,7.9c-12.1-0.5-17.5-10.8-17.5-10.8l-4,0.3l-0.7,14.7
		C106.6,123.2,119.4,125.6,132.9,120.7z"/>
	<path class="st4" d="M114.2,129.3c-35.2,0-63.8-28.6-63.8-63.8S79,1.7,114.2,1.7S178,30.3,178,65.5S149.4,129.3,114.2,129.3z
		 M114.2,10.7c-30.2,0-54.8,24.6-54.8,54.8s24.6,54.8,54.8,54.8S169,95.7,169,65.5S144.4,10.7,114.2,10.7z"/>
	<path class="st1" d="M86.1,70.6l-2.5-1.3c0,0.1-3.3,9.9,0.3,15.8l5-2.4l-2-4.3l-0.5-3.4l0-1.8L86.1,70.6z"/>
</g>
</svg>
